<?xml version="1.0" encoding="UTF-8"?>
<svg width="15px" height="15px" viewBox="0 0 15 15" version="1.1" xmlns="http://www.w3.org/2000/svg" xmlns:xlink="http://www.w3.org/1999/xlink">
    <!-- Generator: Sketch 52.3 (67297) - http://www.bohemiancoding.com/sketch -->
    <title>Group</title>
    <desc>Created with Sketch.</desc>
    <g id="Page-1" stroke="none" stroke-width="1" fill="none" fill-rule="evenodd">
        <g id="Group" fill="#333333" fill-rule="nonzero">
            <path d="M6.20349184,12.5455842 C7.67234086,12.5455842 9.02194497,12.0235485 10.0861885,11.1572062 L13.4972701,14.5743435 C13.7653988,14.8475584 14.2010218,14.8482554 14.4719076,14.5764344 C14.7421041,14.3046134 14.7427934,13.8634271 14.4746647,13.5909091 L11.0566903,10.167499 C11.8996759,9.09694252 12.4069837,7.74411035 12.4069837,6.27279211 C12.4069837,2.81369575 9.62437296,0 6.20349184,0 C2.78261073,0 0,2.81369575 0,6.27279211 C0,9.7311915 2.78261073,12.5455842 6.20349184,12.5455842 Z M6.20349184,1.3939538 C8.86341129,1.3939538 11.0284299,3.58246127 11.0284299,6.27279211 C11.0284299,8.96242598 8.86341129,11.1516304 6.20349184,11.1516304 C3.54288312,11.1516304 1.37855374,8.96242598 1.37855374,6.27279211 C1.37855374,3.58246127 3.54288312,1.3939538 6.20349184,1.3939538 Z" id="Shape"></path>
        </g>
    </g>
</svg>