<?xml version="1.0" encoding="utf-8"?>
<!-- Generator: Adobe Illustrator 16.0.0, SVG Export Plug-In . SVG Version: 6.00 Build 0)  -->
<!DOCTYPE svg PUBLIC "-//W3C//DTD SVG 1.1//EN" "http://www.w3.org/Graphics/SVG/1.1/DTD/svg11.dtd">
<svg version="1.1" id="Layer_1" xmlns="http://www.w3.org/2000/svg" xmlns:xlink="http://www.w3.org/1999/xlink" x="0px" y="0px"
	 width="512px" height="512px" viewBox="0 0 512 512" enable-background="new 0 0 512 512" xml:space="preserve">
<g>
	<path d="M493.7,86.4c-19.8-20.4-41.6-42.3-66.7-66.9c-11.8-11.6-26.7-18-41.8-18c-10.9,0-21.6,3.4-30.8,9.9
		c-8.8,6.1-16.4,13.4-23.7,20.4c-2.1,2-4.2,4.1-6.3,6l-8,7.4l0.1,0.1C304.9,56,288.6,71.7,279,80.2l-0.2-0.2l-7.4,7.7
		c-2.4,2.5-4.8,5-7.3,7.6c-5.2,5.4-10.6,11.1-16.1,16.5l-69,68.6c-41.1,40.9-82.2,81.8-123.3,122.8c-3.9,3.9-7.1,9.1-8.6,14.1
		l-2.6,8.9c-14.1,47.9-28,96-41.9,144c-3.3,11.6-0.2,19.9,3,25c5.7,9,14.6,14,25,14c3.4,0,7.2-0.6,10.9-1.7
		c13.9-4.1,27.8-8.2,41.7-12.4c31.8-9.4,64.6-19.2,97-28.5c13.8-3.9,25-10.5,35.3-20.9c21.5-21.7,42.2-42.6,62.7-63.1
		c44.2-44.7,85.9-86.7,132.2-132.8l1.8-1.8c2.8-2.7,7.7-7.5,10.7-10.6l6.6-7c13.6-12.7,34.2-32.6,43.3-40.1c0,0,0-0.1-0.1-0.1
		c6.2-5.2,14.5-13,21-19.7C517.6,145.8,517.7,111.1,493.7,86.4z M34.7,475l0,0.8l1.2-0.1c-0.5,0.2-1.1,0.3-1.6,0.5
		C34.5,475.8,34.6,475.4,34.7,475z M74,464.4c-4.9,1.5-9.8,2.9-14.7,4.4l-17.7-17.5c10-34.5,20-69,30.1-103.5l91,90.5
		C133.1,446.9,103.1,455.7,74,464.4z M389.6,225.2l-1.8,1.8c-46.4,46.1-88.2,88.3-132.3,132.9l-40.5,40.8l-22,22.2l-106-105.4
		c31.4-31.3,62.8-62.5,94.1-93.8l20.6-20.5l68.9-68.6c4.7-4.6,9.2-9.4,13.7-14.1l3.4-3.6l5.3-5.5l107,103.3l-0.4,0.4
		C397,218.1,392.5,222.4,389.6,225.2z M470.6,148.3c-5.7,5.9-13.2,13-18.6,17.5c-0.6,0.5-1.2,1.1-1.8,1.6c-1.4,1.2-3,2.7-4.6,4.1
		L338.8,68.4c0.5-0.5,1-1,1.5-1.5l5.9-5.4c2.3-2.1,4.6-4.3,6.7-6.4c6.4-6.2,13-12.6,19.8-17.3c3.8-2.6,8.1-4.1,12.5-4.1
		c6.6,0,13.5,3.1,19.3,8.8c25.1,24.5,46.7,46.2,66.2,66.2C482.6,121,482.5,135.9,470.6,148.3z"/>
</g>
</svg>
