<svg width="19" height="24" viewBox="0 0 19 24" fill="none" xmlns="http://www.w3.org/2000/svg">
<rect width="19" height="24" rx="2" fill="#009AFF"/>
<path d="M7.93914 8.37827C8.08281 8.52195 8.31575 8.52195 8.45942 8.37827L9.23986 7.59784C10.3892 6.44845 12.2528 6.44845 13.4022 7.59784C14.5515 8.74723 14.5515 10.6108 13.4022 11.7601L12.6217 12.5406C12.4781 12.6842 12.4781 12.9172 12.6217 13.0609C12.7654 13.2045 12.9983 13.2045 13.142 13.0609L13.9224 12.2804C15.3592 10.8437 15.3592 8.51429 13.9224 7.07755C12.4857 5.64082 10.1563 5.64082 8.71957 7.07755L7.93914 7.85798C7.79546 8.00166 7.79546 8.2346 7.93914 8.37827Z" fill="white"/>
<path d="M6.37827 9.93914C6.52195 10.0828 6.52195 10.3158 6.37827 10.4594L5.59784 11.2399C4.44845 12.3892 4.44845 14.2528 5.59784 15.4022C6.74723 16.5515 8.61076 16.5515 9.76014 15.4022L10.5406 14.6217C10.6842 14.4781 10.9172 14.4781 11.0609 14.6217C11.2045 14.7654 11.2045 14.9983 11.0609 15.142L10.2804 15.9224C8.8437 17.3592 6.51429 17.3592 5.07755 15.9224C3.64082 14.4857 3.64082 12.1563 5.07755 10.7196L5.85798 9.93914C6.00166 9.79546 6.2346 9.79546 6.37827 9.93914Z" fill="white"/>
<path d="M11.5812 9.41885C11.4375 9.27517 11.2045 9.27517 11.0609 9.41885L7.41885 13.0609C7.27517 13.2045 7.27517 13.4375 7.41885 13.5812C7.56252 13.7248 7.79546 13.7248 7.93914 13.5812L11.5812 9.93914C11.7248 9.79546 11.7248 9.56252 11.5812 9.41885Z" fill="white"/>
</svg>
