<?xml version="1.0" encoding="UTF-8"?>
<svg width="256px" height="231px" viewBox="0 0 256 231" version="1.1" xmlns="http://www.w3.org/2000/svg" xmlns:xlink="http://www.w3.org/1999/xlink">
    <!-- Generator: Sketch 54.1 (76490) - https://sketchapp.com -->
    <title>Delete Icon</title>
    <desc>Created with Sketch.</desc>
    <g id="Page-3" stroke="none" stroke-width="1" fill-rule="evenodd">
        <g id="Artboard" transform="translate(0.000000, -13.000000)" fill-rule="nonzero">
            <path d="M181.975904,48.9333333 L248.289157,48.9333333 C252.547738,48.9333333 256,52.3807408 256,56.6333333 C256,60.8859259 252.547738,64.3333333 248.289157,64.3333333 L218.987952,64.3333333 L218.987952,218.333333 C218.987952,232.557943 207.202405,244 192.771084,244 L63.2289157,244 C48.7975949,244 37.0120482,232.557943 37.0120482,218.333333 L37.0120482,64.3333333 L7.71084337,64.3333333 C3.45226217,64.3333333 2.84217094e-14,60.8859259 2.84217094e-14,56.6333333 C2.84217094e-14,52.3807408 3.45226217,48.9333333 7.71084337,48.9333333 L74.0240964,48.9333333 L74.0240964,38.6666667 C74.0240964,24.4420574 85.8096431,13 100.240964,13 L155.759036,13 C170.190357,13 181.975904,24.4420574 181.975904,38.6666667 L181.975904,48.9333333 Z M166.554217,48.9333333 L166.554217,38.6666667 C166.554217,33.0458439 161.768905,28.4 155.759036,28.4 L100.240964,28.4 C94.2310948,28.4 89.4457831,33.0458439 89.4457831,38.6666667 L89.4457831,48.9333333 L166.554217,48.9333333 Z M174.26506,64.3333333 L81.7349398,64.3333333 L52.4337349,64.3333333 L52.4337349,218.333333 C52.4337349,223.954156 57.2190466,228.6 63.2289157,228.6 L192.771084,228.6 C198.780953,228.6 203.566265,223.954156 203.566265,218.333333 L203.566265,64.3333333 L174.26506,64.3333333 Z M107.951807,182.4 C107.951807,186.652593 104.499545,190.1 100.240964,190.1 C95.9823827,190.1 92.5301205,186.652593 92.5301205,182.4 L92.5301205,110.533333 C92.5301205,106.280741 95.9823827,102.833333 100.240964,102.833333 C104.499545,102.833333 107.951807,106.280741 107.951807,110.533333 L107.951807,182.4 Z M163.46988,182.4 C163.46988,186.652593 160.017617,190.1 155.759036,190.1 C151.500455,190.1 148.048193,186.652593 148.048193,182.4 L148.048193,110.533333 C148.048193,106.280741 151.500455,102.833333 155.759036,102.833333 C160.017617,102.833333 163.46988,106.280741 163.46988,110.533333 L163.46988,182.4 Z" id="Delete-Icon"></path>
        </g>
    </g>
</svg>